<svg width="31" height="31" viewBox="0 0 31 31" fill="none" xmlns="http://www.w3.org/2000/svg">
<rect width="30.0589" height="30.0589" rx="7.51471" fill="#3F3F3F"/>
<path d="M23.3907 19.5904L20.4444 22.7509C20.3807 22.8195 20.3035 22.8743 20.2177 22.9118C20.1319 22.9493 20.0392 22.9687 19.9456 22.9688H5.97904C5.91243 22.9687 5.84727 22.9493 5.79155 22.9127C5.73582 22.8762 5.69196 22.8242 5.66531 22.7632C5.63867 22.7021 5.6304 22.6346 5.64153 22.5689C5.65266 22.5032 5.6827 22.4421 5.72797 22.3932L8.67093 19.2328C8.73465 19.1641 8.81183 19.1093 8.89765 19.0718C8.98347 19.0344 9.07609 19.015 9.16973 19.0149H23.1363C23.2035 19.0135 23.2696 19.032 23.3264 19.0681C23.3831 19.1042 23.4279 19.1563 23.455 19.2179C23.4822 19.2794 23.4906 19.3476 23.4792 19.4139C23.4677 19.4802 23.4369 19.5416 23.3907 19.5904ZM20.4444 13.2245C20.3804 13.1562 20.3032 13.1016 20.2174 13.0642C20.1317 13.0267 20.0392 13.0071 19.9456 13.0066H5.97904C5.91243 13.0067 5.84727 13.0261 5.79155 13.0627C5.73582 13.0992 5.69196 13.1512 5.66531 13.2122C5.63867 13.2733 5.6304 13.3408 5.64153 13.4065C5.65266 13.4722 5.6827 13.5333 5.72797 13.5822L8.67093 16.7443C8.7349 16.8126 8.81212 16.8672 8.89789 16.9047C8.98365 16.9421 9.07615 16.9617 9.16973 16.9622H23.1363C23.2028 16.9619 23.2677 16.9421 23.3232 16.9055C23.3786 16.8689 23.4222 16.8169 23.4487 16.7558C23.4751 16.6948 23.4832 16.6274 23.4721 16.5619C23.4609 16.4963 23.4309 16.4355 23.3857 16.3867L20.4444 13.2245ZM5.97904 10.954H19.9456C20.0392 10.9539 20.1319 10.9345 20.2177 10.897C20.3035 10.8595 20.3807 10.8047 20.4444 10.7361L23.3907 7.57561C23.4252 7.53909 23.4513 7.49538 23.4669 7.44761C23.4826 7.39984 23.4876 7.3492 23.4814 7.2993C23.4753 7.2494 23.4582 7.20147 23.4314 7.15895C23.4046 7.11642 23.3687 7.08035 23.3263 7.0533C23.2696 7.0172 23.2035 6.99868 23.1363 7.00007H9.16973C9.07609 7.00017 8.98347 7.01957 8.89765 7.05706C8.81183 7.09455 8.73465 7.14933 8.67093 7.21798L5.72797 10.3785C5.6827 10.4273 5.65266 10.4884 5.64153 10.5541C5.6304 10.6198 5.63867 10.6873 5.66531 10.7484C5.69196 10.8095 5.73582 10.8614 5.79155 10.898C5.84727 10.9345 5.91243 10.954 5.97904 10.954Z" fill="url(#paint0_linear_18_1153)"/>
<defs>
<linearGradient id="paint0_linear_18_1153" x1="7.14292" y1="23.3497" x2="21.795" y2="6.83838" gradientUnits="userSpaceOnUse">
<stop offset="0.08" stop-color="#9945FF"/>
<stop offset="0.3" stop-color="#8752F3"/>
<stop offset="0.5" stop-color="#5497D5"/>
<stop offset="0.6" stop-color="#43B4CA"/>
<stop offset="0.72" stop-color="#28E0B9"/>
<stop offset="0.97" stop-color="#19FB9B"/>
</linearGradient>
</defs>
</svg>
